<svg xmlns="http://www.w3.org/2000/svg" viewBox="0 0 24 24" role="img" aria-label="GitHub">
  <path fill="#6B7280" d="M12 .7a11.5 11.5 0 0 0-3.64 22.41c.58.1.79-.25.79-.56v-2.23c-3.22.7-3.9-1.37-3.9-1.37-.53-1.34-1.29-1.7-1.29-1.7-1.05-.73.08-.72.08-.72 1.17.08 1.78 1.2 1.78 1.2 1.04 1.78 2.72 1.27 3.38.97.1-.75.4-1.27.74-1.56-2.57-.3-5.27-1.29-5.27-5.69 0-1.26.45-2.28 1.19-3.09-.12-.29-.52-1.46.11-3.05 0 0 .97-.31 3.16 1.18a10.97 10.97 0 0 1 5.75 0c2.2-1.49 3.16-1.18 3.16-1.18.63 1.59.23 2.76.11 3.05.74.81 1.19 1.83 1.19 3.09 0 4.41-2.71 5.39-5.29 5.68.42.36.79 1.07.79 2.16v3.26c0 .31.21.67.79.56A11.5 11.5 0 0 0 12 .7Z" />
</svg>
